<?xml version="1.0" standalone="no"?>
<!DOCTYPE svg PUBLIC "-//W3C//DTD SVG 20010904//EN"
 "http://www.w3.org/TR/2001/REC-SVG-20010904/DTD/svg10.dtd">
<svg version="1.0" xmlns="http://www.w3.org/2000/svg"
 width="452.000000pt" height="452.000000pt" viewBox="0 0 452.000000 452.000000"
 preserveAspectRatio="xMidYMid meet">
<metadata>
Created by potrace 1.11, written by Peter Selinger 2001-2013
</metadata>
<g transform="translate(0.000000,452.000000) scale(0.100000,-0.100000)"
fill="#000000" stroke="none">
<path d="M0 2265 l0 -2255 2255 0 2255 0 0 2255 0 2255 -2255 0 -2255 0 0
-2255z m1255 153 c116 -328 213 -599 216 -602 3 -3 76 203 163 457 88 254 181
526 209 605 l49 142 189 0 189 0 0 -775 0 -775 -130 0 -130 0 -2 596 -3 596
-59 -164 c-32 -89 -128 -358 -214 -595 l-155 -433 -112 0 -112 0 -198 553
c-109 303 -206 572 -216 597 -17 44 -18 31 -18 -552 l-1 -598 -130 0 -130 0 0
775 0 775 192 -2 193 -3 210 -597z m2143 587 c246 -50 419 -220 489 -482 24
-89 27 -115 27 -278 0 -163 -3 -189 -27 -278 -54 -202 -168 -351 -328 -426
-137 -65 -186 -71 -604 -71 l-365 0 0 775 0 775 365 0 c290 0 382 -3 443 -15z"/>
<path d="M2870 2246 l0 -556 143 0 c223 0 307 13 404 60 120 59 182 142 214
285 18 79 18 341 0 420 -29 131 -92 221 -191 274 -99 53 -146 62 -367 68
l-203 6 0 -557z"/>
</g>
</svg>
